<svg xmlns="http://www.w3.org/2000/svg" xmlns:xlink="http://www.w3.org/1999/xlink" width="1500" zoomAndPan="magnify" viewBox="0 0 1125 374.999991" height="500" preserveAspectRatio="xMidYMid meet" version="1.0"><defs><g/></defs><g fill="rgb(0%, 0%, 0%)" fill-opacity="1"><g transform="translate(32.613293, 270.374987)"><g><path d="M 28.375 -176.625 L 76.28125 -176.625 C 89.164062 -176.625 97.800781 -173.472656 102.1875 -167.171875 C 106.570312 -160.867188 107.125 -150.585938 103.84375 -136.328125 L 101.984375 -128.515625 C 98.148438 -111.648438 89.789062 -101.570312 76.90625 -98.28125 C 83.894531 -96.363281 88.070312 -91.910156 89.4375 -84.921875 C 90.8125 -77.929688 90.195312 -68.675781 87.59375 -57.15625 C 83.207031 -38.382812 77.109375 -24.164062 69.296875 -14.5 C 61.484375 -4.832031 50.242188 0 35.578125 0 L -12.34375 0 Z M 54.90625 -110.21875 C 57.914062 -110.21875 60.207031 -111.347656 61.78125 -113.609375 C 63.363281 -115.867188 64.632812 -119.054688 65.59375 -123.171875 L 69.703125 -140.859375 C 71.078125 -146.609375 69.226562 -149.484375 64.15625 -149.484375 L 56.75 -149.484375 L 47.703125 -110.21875 Z M 32.890625 -31.046875 C 42.078125 -31.046875 47.628906 -35.429688 49.546875 -44.203125 L 54.6875 -66.21875 C 55.925781 -71.5625 56.066406 -75.601562 55.109375 -78.34375 C 54.148438 -81.082031 51.679688 -82.453125 47.703125 -82.453125 L 41.125 -82.453125 L 29.40625 -31.25 Z M 32.890625 -31.046875 "/></g></g></g><g fill="rgb(0%, 0%, 0%)" fill-opacity="1"><g transform="translate(131.105088, 270.374987)"><g><path d="M -17.0625 0 L 40.71875 -176.625 L 100.546875 -176.625 L 76.703125 0 L 43.171875 0 L 47.296875 -28.578125 L 25.90625 -28.578125 L 17.265625 0 Z M 35.15625 -56.75 L 51.203125 -56.75 L 63.953125 -146.609375 L 62.296875 -146.609375 Z M 35.15625 -56.75 "/></g></g></g><g fill="rgb(0%, 0%, 0%)" fill-opacity="1"><g transform="translate(230.830626, 270.374987)"><g><path d="M -12.34375 0 L 28.375 -176.625 L 64.765625 -176.625 L 61.484375 -92.125 L 81.015625 -176.625 L 115.140625 -176.625 L 74.4375 0 L 39.890625 0 L 42.5625 -88.421875 L 22.203125 0 Z M -12.34375 0 "/></g></g></g><g fill="rgb(0%, 0%, 0%)" fill-opacity="1"><g transform="translate(333.229217, 270.374987)"><g><path d="M -12.34375 0 L 28.375 -176.625 L 64.765625 -176.625 L 61.484375 -92.125 L 81.015625 -176.625 L 115.140625 -176.625 L 74.4375 0 L 39.890625 0 L 42.5625 -88.421875 L 22.203125 0 Z M -12.34375 0 "/></g></g></g><g fill="rgb(0%, 0%, 0%)" fill-opacity="1"><g transform="translate(435.627808, 270.374987)"><g><path d="M -12.34375 0 L 28.375 -176.625 L 99.109375 -176.625 L 91.296875 -142.5 L 56.546875 -142.5 L 48.53125 -108.15625 L 81.84375 -108.15625 L 74.234375 -74.84375 L 40.921875 -74.84375 L 31.453125 -34.34375 L 68.46875 -34.34375 L 60.65625 0 Z M -12.34375 0 "/></g></g></g><g fill="rgb(0%, 0%, 0%)" fill-opacity="1"><g transform="translate(520.343058, 270.374987)"><g><path d="M 28.375 -176.625 L 82.65625 -176.625 C 91.289062 -176.625 97.523438 -174.671875 101.359375 -170.765625 C 105.203125 -166.859375 107.125 -161.375 107.125 -154.3125 C 107.125 -147.257812 105.890625 -138.25 103.421875 -127.28125 C 101.097656 -117.269531 97.976562 -109.453125 94.0625 -103.828125 C 90.15625 -98.210938 84.707031 -94.3125 77.71875 -92.125 C 82.789062 -91.019531 86.046875 -88.34375 87.484375 -84.09375 C 88.929688 -79.84375 88.832031 -74.085938 87.1875 -66.828125 L 71.34375 0 L 36.796875 0 L 52.640625 -69.09375 C 53.867188 -74.03125 53.660156 -77.179688 52.015625 -78.546875 C 50.367188 -79.921875 47.007812 -80.609375 41.9375 -80.609375 L 23.4375 0 L -12.34375 0 Z M 57.78125 -111.25 C 62.71875 -111.25 66.414062 -116.59375 68.875 -127.28125 C 69.976562 -131.9375 70.5625 -135.429688 70.625 -137.765625 C 70.695312 -140.097656 70.285156 -141.707031 69.390625 -142.59375 C 68.503906 -143.488281 67.03125 -143.9375 64.96875 -143.9375 L 56.75 -143.9375 L 49.34375 -111.25 Z M 57.78125 -111.25 "/></g></g></g><g fill="rgb(0%, 0%, 0%)" fill-opacity="1"><g transform="translate(618.423634, 270.374987)"><g><path d="M 28.375 -176.625 L 76.28125 -176.625 C 89.164062 -176.625 97.800781 -173.472656 102.1875 -167.171875 C 106.570312 -160.867188 107.125 -150.585938 103.84375 -136.328125 L 101.984375 -128.515625 C 98.148438 -111.648438 89.789062 -101.570312 76.90625 -98.28125 C 83.894531 -96.363281 88.070312 -91.910156 89.4375 -84.921875 C 90.8125 -77.929688 90.195312 -68.675781 87.59375 -57.15625 C 83.207031 -38.382812 77.109375 -24.164062 69.296875 -14.5 C 61.484375 -4.832031 50.242188 0 35.578125 0 L -12.34375 0 Z M 54.90625 -110.21875 C 57.914062 -110.21875 60.207031 -111.347656 61.78125 -113.609375 C 63.363281 -115.867188 64.632812 -119.054688 65.59375 -123.171875 L 69.703125 -140.859375 C 71.078125 -146.609375 69.226562 -149.484375 64.15625 -149.484375 L 56.75 -149.484375 L 47.703125 -110.21875 Z M 32.890625 -31.046875 C 42.078125 -31.046875 47.628906 -35.429688 49.546875 -44.203125 L 54.6875 -66.21875 C 55.925781 -71.5625 56.066406 -75.601562 55.109375 -78.34375 C 54.148438 -81.082031 51.679688 -82.453125 47.703125 -82.453125 L 41.125 -82.453125 L 29.40625 -31.25 Z M 32.890625 -31.046875 "/></g></g></g><g fill="rgb(0%, 0%, 0%)" fill-opacity="1"><g transform="translate(716.915418, 270.374987)"><g><path d="M 29.40625 1.640625 C 15.144531 1.640625 5.304688 -2.707031 -0.109375 -11.40625 C -5.523438 -20.113281 -6.378906 -32.347656 -2.671875 -48.109375 L 16.65625 -132.21875 C 20.21875 -147.4375 26.585938 -158.914062 35.765625 -166.65625 C 44.953125 -174.40625 56.675781 -178.28125 70.9375 -178.28125 C 85.195312 -178.28125 95.132812 -174.40625 100.75 -166.65625 C 106.375 -158.914062 107.40625 -147.4375 103.84375 -132.21875 L 84.515625 -48.109375 C 80.804688 -32.210938 74.253906 -19.945312 64.859375 -11.3125 C 55.472656 -2.675781 43.65625 1.640625 29.40625 1.640625 Z M 36.796875 -30.84375 C 39.953125 -30.84375 42.421875 -32.210938 44.203125 -34.953125 C 45.984375 -37.691406 47.425781 -41.53125 48.53125 -46.46875 L 68.46875 -132.828125 C 69.289062 -136.671875 69.492188 -139.789062 69.078125 -142.1875 C 68.671875 -144.582031 66.890625 -145.78125 63.734375 -145.78125 C 57.847656 -145.78125 53.875 -141.328125 51.8125 -132.421875 L 31.875 -46.265625 C 30.632812 -41.191406 30.320312 -37.351562 30.9375 -34.75 C 31.5625 -32.144531 33.515625 -30.84375 36.796875 -30.84375 Z M 36.796875 -30.84375 "/></g></g></g><g fill="rgb(0%, 0%, 0%)" fill-opacity="1"><g transform="translate(816.846549, 270.374987)"><g><path d="M 29.40625 1.640625 C 15.144531 1.640625 5.304688 -2.707031 -0.109375 -11.40625 C -5.523438 -20.113281 -6.378906 -32.347656 -2.671875 -48.109375 L 16.65625 -132.21875 C 20.21875 -147.4375 26.585938 -158.914062 35.765625 -166.65625 C 44.953125 -174.40625 56.675781 -178.28125 70.9375 -178.28125 C 85.195312 -178.28125 95.132812 -174.40625 100.75 -166.65625 C 106.375 -158.914062 107.40625 -147.4375 103.84375 -132.21875 L 84.515625 -48.109375 C 80.804688 -32.210938 74.253906 -19.945312 64.859375 -11.3125 C 55.472656 -2.675781 43.65625 1.640625 29.40625 1.640625 Z M 36.796875 -30.84375 C 39.953125 -30.84375 42.421875 -32.210938 44.203125 -34.953125 C 45.984375 -37.691406 47.425781 -41.53125 48.53125 -46.46875 L 68.46875 -132.828125 C 69.289062 -136.671875 69.492188 -139.789062 69.078125 -142.1875 C 68.671875 -144.582031 66.890625 -145.78125 63.734375 -145.78125 C 57.847656 -145.78125 53.875 -141.328125 51.8125 -132.421875 L 31.875 -46.265625 C 30.632812 -41.191406 30.320312 -37.351562 30.9375 -34.75 C 31.5625 -32.144531 33.515625 -30.84375 36.796875 -30.84375 Z M 36.796875 -30.84375 "/></g></g></g><g fill="rgb(0%, 0%, 0%)" fill-opacity="1"><g transform="translate(916.777725, 270.374987)"><g><path d="M 29.203125 1.640625 C 13.160156 1.640625 2.503906 -2.332031 -2.765625 -10.28125 C -8.046875 -18.226562 -8.632812 -31.046875 -4.53125 -48.734375 L -0.625 -66 L 34.125 -66 L 28.984375 -44 C 26.929688 -35.226562 28.71875 -30.84375 34.34375 -30.84375 C 37.488281 -30.84375 39.914062 -31.765625 41.625 -33.609375 C 43.34375 -35.460938 44.679688 -38.582031 45.640625 -42.96875 C 47.015625 -48.726562 47.425781 -53.492188 46.875 -57.265625 C 46.332031 -61.035156 45.304688 -64.1875 43.796875 -66.71875 C 42.285156 -69.257812 39.40625 -73.203125 35.15625 -78.546875 L 23.4375 -93.765625 C 14.394531 -105.273438 11.445312 -118.023438 14.59375 -132.015625 C 18.019531 -147.085938 24.117188 -158.566406 32.890625 -166.453125 C 41.671875 -174.335938 52.707031 -178.28125 66 -178.28125 C 81.90625 -178.28125 92.394531 -174.0625 97.46875 -165.625 C 102.539062 -157.195312 102.953125 -144.003906 98.703125 -126.046875 L 62.71875 -126.046875 L 65.390625 -138.1875 C 65.929688 -140.507812 65.722656 -142.351562 64.765625 -143.71875 C 63.804688 -145.09375 62.160156 -145.78125 59.828125 -145.78125 C 57.085938 -145.78125 54.828125 -145.023438 53.046875 -143.515625 C 51.265625 -142.015625 50.097656 -139.960938 49.546875 -137.359375 C 48.179688 -131.597656 50.101562 -125.632812 55.3125 -119.46875 L 71.34375 -99.734375 C 75.050781 -95.066406 78 -90.640625 80.1875 -86.453125 C 82.382812 -82.273438 83.789062 -77.34375 84.40625 -71.65625 C 85.019531 -65.96875 84.4375 -59.21875 82.65625 -51.40625 C 78.539062 -34 72.269531 -20.804688 63.84375 -11.828125 C 55.414062 -2.847656 43.867188 1.640625 29.203125 1.640625 Z M 29.203125 1.640625 "/></g></g></g><g fill="rgb(0%, 0%, 0%)" fill-opacity="1"><g transform="translate(1011.568398, 270.374987)"><g><path d="M 2.671875 0 L 35.578125 -142.703125 L 14.59375 -142.703125 L 22.40625 -176.625 L 99.734375 -176.625 L 91.921875 -142.703125 L 70.9375 -142.703125 L 38.046875 0 Z M 2.671875 0 "/></g></g></g></svg>